<svg xmlns="http://www.w3.org/2000/svg" viewBox="0 0 24 24" fill="#6C6CFF"><path d="M3.768 14.86a2.593 2.593 0 0 1-2.242-1.289 2.543 2.543 0 0 1 .938-3.48l12.468-7.2a2.593 2.593 0 0 1 3.504.927 2.543 2.543 0 0 1-.938 3.48l-12.468 7.2a2.589 2.589 0 0 1-1.262.361zm16.464 0a2.593 2.593 0 0 1-2.242-1.289 2.543 2.543 0 0 1 .938-3.48l.696-.402a2.593 2.593 0 0 1 3.504.927 2.543 2.543 0 0 1-.938 3.48l-.696.402a2.589 2.589 0 0 1-1.262.361zM3.768 24a2.593 2.593 0 0 1-2.242-1.289 2.543 2.543 0 0 1 .938-3.48l12.468-7.2a2.593 2.593 0 0 1 3.504.927 2.543 2.543 0 0 1-.938 3.48L5.03 23.638A2.589 2.589 0 0 1 3.768 24zm16.464 0a2.593 2.593 0 0 1-2.242-1.289 2.543 2.543 0 0 1 .938-3.48l.696-.402a2.593 2.593 0 0 1 3.504.927 2.543 2.543 0 0 1-.938 3.48l-.696.402A2.589 2.589 0 0 1 20.232 24z"/></svg>
