<svg xmlns="http://www.w3.org/2000/svg" viewBox="0 0 24 24" fill="#6264A7"><path d="M20.625 8.5h-1.5a2.502 2.502 0 0 0 1.875-2.419A2.496 2.496 0 0 0 18.506 3.6 2.496 2.496 0 0 0 16 6.081c0 .063.009.124.013.187h-.388a.625.625 0 0 0-.625.625v5.482a4.363 4.363 0 0 1-2.237 3.808l-.138.078V9.125A1.125 1.125 0 0 0 11.5 8H4.625A1.125 1.125 0 0 0 3.5 9.125v7.5A4.38 4.38 0 0 0 7.875 21h.25A4.38 4.38 0 0 0 12.5 16.625v-.548l.138.078A4.363 4.363 0 0 0 14.875 17h.25A4.38 4.38 0 0 0 19.5 12.625V9.125a.625.625 0 0 0-.625-.625h-.25zM8 18a2.75 2.75 0 0 1-2.75-2.75v-1.5h2a.75.75 0 0 0 0-1.5h-2v-1.5A.75.75 0 0 1 6 10h4.25a.75.75 0 0 1 .75.75v4.5A2.75 2.75 0 0 1 8.25 18H8zm11.25-5.375A2.627 2.627 0 0 1 16.625 15h-.25a2.342 2.342 0 0 1-.375-.031v-4.344h3.25v1.999z"/><circle cx="8" cy="3.75" r="2.75"/></svg>
